# xmcd
#
# Track frame offsets: 
#        150
#        36570
#        63364
#        92358
#        124794
#        152177
#        176774
#        193529
#        222396
#        237271
#        261870
#        276182
#        289536
#        316572
#
# Disc length: 4280 seconds
#
# Revision: 1
# Processed by: cddbd v1.5.2PL0 Copyright (c) Steve Scherf et al.
# Submitted via: ExactAudioCopy v0.99pb5
#
DISCID=c810b60e
DTITLE=Andrea Marcelli, Mitchel Forman, Eddie Gomez, Bob Mintzer, Mike
DTITLE=Stern - Beyond the Blue
DYEAR=2005
DGENRE=Jazz
TTITLE0=Between Poles <A. Marcelli>
TTITLE1=Summer Nights <A. Marcelli>
TTITLE2=Herbst (Autumn) <A. Marcelli>
TTITLE3=The Meaning of the Family <A. Marcelli>
TTITLE4=Beyond the Blue <A. Marcelli>
TTITLE5=Orange Green <A. Marcelli>
TTITLE6=Fragments <A. Marcelli>
TTITLE7=Distances <A. Marcelli>
TTITLE8=Still <A. Marcelli>
TTITLE9=Retirantes <A. Marcelli>
TTITLE10=Emotions <A. Marcelli>
TTITLE11=Welcome <A. Marcelli>
TTITLE12=Between Poles, reprise <A. Marcelli>
TTITLE13=More Orange <A. Marcelli>
EXTD=YEAR: 2005
EXTT0=
EXTT1=
EXTT2=
EXTT3=
EXTT4=
EXTT5=
EXTT6=
EXTT7=
EXTT8=
EXTT9=
EXTT10=
EXTT11=
EXTT12=
EXTT13=
PLAYORDER=
